<svg xmlns="http://www.w3.org/2000/svg" viewBox="0 0 960 680" aria-hidden="true" data-effect="samoyed-snow-11" data-layers="11"><defs><radialGradient id="sy-aura"><stop stop-color="#c0cfff" stop-opacity=".04"/><stop offset=".73" stop-color="#759fe8" stop-opacity=".2"/><stop offset="1" stop-color="#4789dc" stop-opacity="0"/></radialGradient><linearGradient id="sy-curtain" x2="1" y2="1"><stop stop-color="#5ad7ff" stop-opacity=".55"/><stop offset=".52" stop-color="#6a96fc" stop-opacity=".12"/><stop offset="1" stop-color="#9374eb" stop-opacity=".55"/></linearGradient></defs><style>.sy-float{animation:sy-float 4s ease-in-out infinite}.sy-turn{transform-origin:480px 345px;animation:sy-turn 48s linear infinite}.sy-slow{transform-origin:480px 345px;animation:sy-turn 65s linear infinite reverse}.sy-fall{animation:sy-fall 3.8s ease-in-out infinite}@keyframes sy-float{50%{transform:translateY(-7px)}}@keyframes sy-turn{to{transform:rotate(360deg)}}@keyframes sy-fall{50%{transform:translateY(16px);opacity:.6}}@media(prefers-reduced-motion:reduce){.sy-motion{animation:none!important}}</style><g data-unlocked-at="1"><ellipse cx="480" cy="374" rx="218" ry="226" fill="url(#sy-aura)"/><g class="sy-motion sy-float"><path d="M480 175q0 5 5 5q-5 0-5 5q0-5-5-5q5 0 5-5Z" fill="#edfcff" stroke="#438fec" stroke-width="1"/><path d="M628.492424049175 222.32738110421968q0 6 6 6q-6 0-6 6q0-6-6-6q6 0 6-6Z" fill="#edfcff" stroke="#438fec" stroke-width="1"/><path d="M690 338q0 7 7 7q-7 0-7 7q0-7-7-7q7 0 7-7Z" fill="#edfcff" stroke="#438fec" stroke-width="1"/><path d="M628.492424049175 456.6726188957803q0 5 5 5q-5 0-5 5q0-5-5-5q5 0 5-5Z" fill="#edfcff" stroke="#438fec" stroke-width="1"/><path d="M480 504q0 6 6 6q-6 0-6 6q0-6-6-6q6 0 6-6Z" fill="#edfcff" stroke="#438fec" stroke-width="1"/><path d="M331.50757595082507 454.6726188957804q0 7 7 7q-7 0-7 7q0-7-7-7q7 0 7-7Z" fill="#edfcff" stroke="#438fec" stroke-width="1"/><path d="M270 340q0 5 5 5q-5 0-5 5q0-5-5-5q5 0 5-5Z" fill="#edfcff" stroke="#438fec" stroke-width="1"/><path d="M331.50757595082496 222.32738110421968q0 6 6 6q-6 0-6 6q0-6-6-6q6 0 6-6Z" fill="#edfcff" stroke="#438fec" stroke-width="1"/></g></g><g data-unlocked-at="2"><g class="sy-motion sy-turn"><g transform="translate(480 161)"><g transform="rotate(0)"><path d="M0 0V-15M0 -7.5l-4.5-3.75M0 -7.5l4.5-3.75" fill="none" stroke="#8cddff" stroke-width="2.6" stroke-linecap="round" stroke-linejoin="round"/></g><g transform="rotate(60)"><path d="M0 0V-15M0 -7.5l-4.5-3.75M0 -7.5l4.5-3.75" fill="none" stroke="#8cddff" stroke-width="2.6" stroke-linecap="round" stroke-linejoin="round"/></g><g transform="rotate(120)"><path d="M0 0V-15M0 -7.5l-4.5-3.75M0 -7.5l4.5-3.75" fill="none" stroke="#8cddff" stroke-width="2.6" stroke-linecap="round" stroke-linejoin="round"/></g><g transform="rotate(180)"><path d="M0 0V-15M0 -7.5l-4.5-3.75M0 -7.5l4.5-3.75" fill="none" stroke="#8cddff" stroke-width="2.6" stroke-linecap="round" stroke-linejoin="round"/></g><g transform="rotate(240)"><path d="M0 0V-15M0 -7.5l-4.5-3.75M0 -7.5l4.5-3.75" fill="none" stroke="#8cddff" stroke-width="2.6" stroke-linecap="round" stroke-linejoin="round"/></g><g transform="rotate(300)"><path d="M0 0V-15M0 -7.5l-4.5-3.75M0 -7.5l4.5-3.75" fill="none" stroke="#8cddff" stroke-width="2.6" stroke-linecap="round" stroke-linejoin="round"/></g></g><g transform="translate(657.5352077758099 253)"><g transform="rotate(0)"><path d="M0 0V-15M0 -7.5l-4.5-3.75M0 -7.5l4.5-3.75" fill="none" stroke="#8cddff" stroke-width="2.6" stroke-linecap="round" stroke-linejoin="round"/></g><g transform="rotate(60)"><path d="M0 0V-15M0 -7.5l-4.5-3.75M0 -7.5l4.5-3.75" fill="none" stroke="#8cddff" stroke-width="2.6" stroke-linecap="round" stroke-linejoin="round"/></g><g transform="rotate(120)"><path d="M0 0V-15M0 -7.5l-4.5-3.75M0 -7.5l4.5-3.75" fill="none" stroke="#8cddff" stroke-width="2.6" stroke-linecap="round" stroke-linejoin="round"/></g><g transform="rotate(180)"><path d="M0 0V-15M0 -7.5l-4.5-3.75M0 -7.5l4.5-3.75" fill="none" stroke="#8cddff" stroke-width="2.6" stroke-linecap="round" stroke-linejoin="round"/></g><g transform="rotate(240)"><path d="M0 0V-15M0 -7.5l-4.5-3.75M0 -7.5l4.5-3.75" fill="none" stroke="#8cddff" stroke-width="2.6" stroke-linecap="round" stroke-linejoin="round"/></g><g transform="rotate(300)"><path d="M0 0V-15M0 -7.5l-4.5-3.75M0 -7.5l4.5-3.75" fill="none" stroke="#8cddff" stroke-width="2.6" stroke-linecap="round" stroke-linejoin="round"/></g></g><g transform="translate(657.5352077758099 437)"><g transform="rotate(0)"><path d="M0 0V-15M0 -7.5l-4.5-3.75M0 -7.5l4.5-3.75" fill="none" stroke="#8cddff" stroke-width="2.6" stroke-linecap="round" stroke-linejoin="round"/></g><g transform="rotate(60)"><path d="M0 0V-15M0 -7.5l-4.5-3.75M0 -7.5l4.5-3.75" fill="none" stroke="#8cddff" stroke-width="2.6" stroke-linecap="round" stroke-linejoin="round"/></g><g transform="rotate(120)"><path d="M0 0V-15M0 -7.5l-4.5-3.75M0 -7.5l4.5-3.75" fill="none" stroke="#8cddff" stroke-width="2.6" stroke-linecap="round" stroke-linejoin="round"/></g><g transform="rotate(180)"><path d="M0 0V-15M0 -7.5l-4.5-3.75M0 -7.5l4.5-3.75" fill="none" stroke="#8cddff" stroke-width="2.6" stroke-linecap="round" stroke-linejoin="round"/></g><g transform="rotate(240)"><path d="M0 0V-15M0 -7.5l-4.5-3.75M0 -7.5l4.5-3.75" fill="none" stroke="#8cddff" stroke-width="2.6" stroke-linecap="round" stroke-linejoin="round"/></g><g transform="rotate(300)"><path d="M0 0V-15M0 -7.5l-4.5-3.75M0 -7.5l4.5-3.75" fill="none" stroke="#8cddff" stroke-width="2.6" stroke-linecap="round" stroke-linejoin="round"/></g></g><g transform="translate(480 529)"><g transform="rotate(0)"><path d="M0 0V-15M0 -7.5l-4.5-3.75M0 -7.5l4.5-3.75" fill="none" stroke="#8cddff" stroke-width="2.6" stroke-linecap="round" stroke-linejoin="round"/></g><g transform="rotate(60)"><path d="M0 0V-15M0 -7.5l-4.5-3.75M0 -7.5l4.5-3.75" fill="none" stroke="#8cddff" stroke-width="2.6" stroke-linecap="round" stroke-linejoin="round"/></g><g transform="rotate(120)"><path d="M0 0V-15M0 -7.5l-4.5-3.75M0 -7.5l4.5-3.75" fill="none" stroke="#8cddff" stroke-width="2.6" stroke-linecap="round" stroke-linejoin="round"/></g><g transform="rotate(180)"><path d="M0 0V-15M0 -7.5l-4.5-3.75M0 -7.5l4.5-3.75" fill="none" stroke="#8cddff" stroke-width="2.6" stroke-linecap="round" stroke-linejoin="round"/></g><g transform="rotate(240)"><path d="M0 0V-15M0 -7.5l-4.5-3.75M0 -7.5l4.5-3.75" fill="none" stroke="#8cddff" stroke-width="2.6" stroke-linecap="round" stroke-linejoin="round"/></g><g transform="rotate(300)"><path d="M0 0V-15M0 -7.5l-4.5-3.75M0 -7.5l4.5-3.75" fill="none" stroke="#8cddff" stroke-width="2.6" stroke-linecap="round" stroke-linejoin="round"/></g></g><g transform="translate(302.4647922241901 437.00000000000006)"><g transform="rotate(0)"><path d="M0 0V-15M0 -7.5l-4.5-3.75M0 -7.5l4.5-3.75" fill="none" stroke="#8cddff" stroke-width="2.6" stroke-linecap="round" stroke-linejoin="round"/></g><g transform="rotate(60)"><path d="M0 0V-15M0 -7.5l-4.5-3.75M0 -7.5l4.5-3.75" fill="none" stroke="#8cddff" stroke-width="2.6" stroke-linecap="round" stroke-linejoin="round"/></g><g transform="rotate(120)"><path d="M0 0V-15M0 -7.5l-4.5-3.75M0 -7.5l4.5-3.75" fill="none" stroke="#8cddff" stroke-width="2.6" stroke-linecap="round" stroke-linejoin="round"/></g><g transform="rotate(180)"><path d="M0 0V-15M0 -7.5l-4.5-3.75M0 -7.5l4.5-3.75" fill="none" stroke="#8cddff" stroke-width="2.6" stroke-linecap="round" stroke-linejoin="round"/></g><g transform="rotate(240)"><path d="M0 0V-15M0 -7.5l-4.5-3.75M0 -7.5l4.5-3.75" fill="none" stroke="#8cddff" stroke-width="2.6" stroke-linecap="round" stroke-linejoin="round"/></g><g transform="rotate(300)"><path d="M0 0V-15M0 -7.5l-4.5-3.75M0 -7.5l4.5-3.75" fill="none" stroke="#8cddff" stroke-width="2.6" stroke-linecap="round" stroke-linejoin="round"/></g></g><g transform="translate(302.4647922241901 253)"><g transform="rotate(0)"><path d="M0 0V-15M0 -7.5l-4.5-3.75M0 -7.5l4.5-3.75" fill="none" stroke="#8cddff" stroke-width="2.6" stroke-linecap="round" stroke-linejoin="round"/></g><g transform="rotate(60)"><path d="M0 0V-15M0 -7.5l-4.5-3.75M0 -7.5l4.5-3.75" fill="none" stroke="#8cddff" stroke-width="2.6" stroke-linecap="round" stroke-linejoin="round"/></g><g transform="rotate(120)"><path d="M0 0V-15M0 -7.5l-4.5-3.75M0 -7.5l4.5-3.75" fill="none" stroke="#8cddff" stroke-width="2.6" stroke-linecap="round" stroke-linejoin="round"/></g><g transform="rotate(180)"><path d="M0 0V-15M0 -7.5l-4.5-3.75M0 -7.5l4.5-3.75" fill="none" stroke="#8cddff" stroke-width="2.6" stroke-linecap="round" stroke-linejoin="round"/></g><g transform="rotate(240)"><path d="M0 0V-15M0 -7.5l-4.5-3.75M0 -7.5l4.5-3.75" fill="none" stroke="#8cddff" stroke-width="2.6" stroke-linecap="round" stroke-linejoin="round"/></g><g transform="rotate(300)"><path d="M0 0V-15M0 -7.5l-4.5-3.75M0 -7.5l4.5-3.75" fill="none" stroke="#8cddff" stroke-width="2.6" stroke-linecap="round" stroke-linejoin="round"/></g></g></g></g><g data-unlocked-at="3"><g class="sy-motion sy-float"><g transform="translate(290 265)"><path d="M0 -22L13.2 0 0 22 -13.2 0Z" fill="#8cddff" stroke="#438fec" stroke-width="2" stroke-linecap="round" stroke-linejoin="round"/><path d="M0 -22V22" fill="none" stroke="#edfcff" stroke-width="2" stroke-linecap="round" stroke-linejoin="round"/></g><g transform="translate(670 265)"><path d="M0 -22L13.2 0 0 22 -13.2 0Z" fill="#8cddff" stroke="#438fec" stroke-width="2" stroke-linecap="round" stroke-linejoin="round"/><path d="M0 -22V22" fill="none" stroke="#edfcff" stroke-width="2" stroke-linecap="round" stroke-linejoin="round"/></g><g transform="translate(275 435)"><path d="M0 -22L13.2 0 0 22 -13.2 0Z" fill="#8cddff" stroke="#438fec" stroke-width="2" stroke-linecap="round" stroke-linejoin="round"/><path d="M0 -22V22" fill="none" stroke="#edfcff" stroke-width="2" stroke-linecap="round" stroke-linejoin="round"/></g><g transform="translate(685 435)"><path d="M0 -22L13.2 0 0 22 -13.2 0Z" fill="#8cddff" stroke="#438fec" stroke-width="2" stroke-linecap="round" stroke-linejoin="round"/><path d="M0 -22V22" fill="none" stroke="#edfcff" stroke-width="2" stroke-linecap="round" stroke-linejoin="round"/></g></g></g><g data-unlocked-at="4"><ellipse cx="480" cy="570" rx="184" ry="35" fill="none" stroke="#438fec" stroke-width="3"/><ellipse cx="480" cy="570" rx="210" ry="48" fill="none" stroke="#8cddff" stroke-width="3"/><path d="M480 527q0 8 8 8q-8 0-8 8q0-8-8-8q8 0 8-8Z" fill="#edfcff" stroke="#438fec" stroke-width="1"/><path d="M610.8147545195113 537.2512626584709q0 8 8 8q-8 0-8 8q0-8-8-8q8 0 8-8Z" fill="#edfcff" stroke="#438fec" stroke-width="1"/><path d="M665 562q0 8 8 8q-8 0-8 8q0-8-8-8q8 0 8-8Z" fill="#edfcff" stroke="#438fec" stroke-width="1"/><path d="M610.8147545195113 586.7487373415291q0 8 8 8q-8 0-8 8q0-8-8-8q8 0 8-8Z" fill="#edfcff" stroke="#438fec" stroke-width="1"/><path d="M480 597q0 8 8 8q-8 0-8 8q0-8-8-8q8 0 8-8Z" fill="#edfcff" stroke="#438fec" stroke-width="1"/><path d="M349.18524548048873 586.7487373415291q0 8 8 8q-8 0-8 8q0-8-8-8q8 0 8-8Z" fill="#edfcff" stroke="#438fec" stroke-width="1"/><path d="M295 562q0 8 8 8q-8 0-8 8q0-8-8-8q8 0 8-8Z" fill="#edfcff" stroke="#438fec" stroke-width="1"/><path d="M349.1852454804887 537.2512626584709q0 8 8 8q-8 0-8 8q0-8-8-8q8 0 8-8Z" fill="#edfcff" stroke="#438fec" stroke-width="1"/></g><g data-unlocked-at="5"><circle cx="480" cy="345" r="208" fill="none" stroke="#438fec" stroke-width="2" stroke-dasharray="5 12"/><g class="sy-motion sy-turn"><path d="M480 129q0 8 8 8q-8 0-8 8q0-8-8-8q8 0 8-8Z" fill="#edfcff" stroke="#438fec" stroke-width="1"/><path d="M602.2593324768344 168.72446517001094q0 8 8 8q-8 0-8 8q0-8-8-8q8 0 8-8Z" fill="#edfcff" stroke="#438fec" stroke-width="1"/><path d="M677.819755389392 272.72446517001094q0 8 8 8q-8 0-8 8q0-8-8-8q8 0 8-8Z" fill="#edfcff" stroke="#438fec" stroke-width="1"/><path d="M677.819755389392 401.27553482998906q0 8 8 8q-8 0-8 8q0-8-8-8q8 0 8-8Z" fill="#edfcff" stroke="#438fec" stroke-width="1"/><path d="M602.2593324768344 505.27553482998906q0 8 8 8q-8 0-8 8q0-8-8-8q8 0 8-8Z" fill="#edfcff" stroke="#438fec" stroke-width="1"/><path d="M480 545q0 8 8 8q-8 0-8 8q0-8-8-8q8 0 8-8Z" fill="#edfcff" stroke="#438fec" stroke-width="1"/><path d="M357.7406675231656 505.27553482998906q0 8 8 8q-8 0-8 8q0-8-8-8q8 0 8-8Z" fill="#edfcff" stroke="#438fec" stroke-width="1"/><path d="M282.18024461060804 401.27553482998906q0 8 8 8q-8 0-8 8q0-8-8-8q8 0 8-8Z" fill="#edfcff" stroke="#438fec" stroke-width="1"/><path d="M282.18024461060804 272.72446517001094q0 8 8 8q-8 0-8 8q0-8-8-8q8 0 8-8Z" fill="#edfcff" stroke="#438fec" stroke-width="1"/><path d="M357.7406675231656 168.72446517001094q0 8 8 8q-8 0-8 8q0-8-8-8q8 0 8-8Z" fill="#edfcff" stroke="#438fec" stroke-width="1"/></g></g><g data-unlocked-at="6"><path d="M480 126L675 237V453L480 563L285 453V237Z" fill="none" stroke="#438fec" stroke-width="4" stroke-linecap="round" stroke-linejoin="round"/><g class="sy-motion sy-float"><g transform="translate(480 124)"><g transform="rotate(0)"><path d="M0 0V-29M0 -14.5l-8.7-7.25M0 -14.5l8.7-7.25" fill="none" stroke="#8cddff" stroke-width="2.6" stroke-linecap="round" stroke-linejoin="round"/></g><g transform="rotate(60)"><path d="M0 0V-29M0 -14.5l-8.7-7.25M0 -14.5l8.7-7.25" fill="none" stroke="#8cddff" stroke-width="2.6" stroke-linecap="round" stroke-linejoin="round"/></g><g transform="rotate(120)"><path d="M0 0V-29M0 -14.5l-8.7-7.25M0 -14.5l8.7-7.25" fill="none" stroke="#8cddff" stroke-width="2.6" stroke-linecap="round" stroke-linejoin="round"/></g><g transform="rotate(180)"><path d="M0 0V-29M0 -14.5l-8.7-7.25M0 -14.5l8.7-7.25" fill="none" stroke="#8cddff" stroke-width="2.6" stroke-linecap="round" stroke-linejoin="round"/></g><g transform="rotate(240)"><path d="M0 0V-29M0 -14.5l-8.7-7.25M0 -14.5l8.7-7.25" fill="none" stroke="#8cddff" stroke-width="2.6" stroke-linecap="round" stroke-linejoin="round"/></g><g transform="rotate(300)"><path d="M0 0V-29M0 -14.5l-8.7-7.25M0 -14.5l8.7-7.25" fill="none" stroke="#8cddff" stroke-width="2.6" stroke-linecap="round" stroke-linejoin="round"/></g></g><g transform="translate(447 138)"><path d="M0 -15L9 0 0 15 -9 0Z" fill="#8cddff" stroke="#438fec" stroke-width="2" stroke-linecap="round" stroke-linejoin="round"/><path d="M0 -15V15" fill="none" stroke="#edfcff" stroke-width="2" stroke-linecap="round" stroke-linejoin="round"/></g><g transform="translate(513 138)"><path d="M0 -15L9 0 0 15 -9 0Z" fill="#8cddff" stroke="#438fec" stroke-width="2" stroke-linecap="round" stroke-linejoin="round"/><path d="M0 -15V15" fill="none" stroke="#edfcff" stroke-width="2" stroke-linecap="round" stroke-linejoin="round"/></g></g></g><g data-unlocked-at="7"><g class="sy-motion sy-float"><path d="M287 470Q205 422 274 345" fill="none" stroke="#8cddff" stroke-width="7" stroke-linecap="round" stroke-linejoin="round"/><path d="M673 470Q755 422 686 345" fill="none" stroke="#438fec" stroke-width="5" stroke-linecap="round" stroke-linejoin="round"/><path d="M277 393Q193 342 270 270" fill="none" stroke="#8cddff" stroke-width="7" stroke-linecap="round" stroke-linejoin="round"/><path d="M683 393Q767 342 690 270" fill="none" stroke="#438fec" stroke-width="5" stroke-linecap="round" stroke-linejoin="round"/><path d="M267 316Q181 262 266 195" fill="none" stroke="#8cddff" stroke-width="7" stroke-linecap="round" stroke-linejoin="round"/><path d="M693 316Q779 262 694 195" fill="none" stroke="#438fec" stroke-width="5" stroke-linecap="round" stroke-linejoin="round"/></g></g><g data-unlocked-at="8"><path d="M290 285L370 177L575 193L681 296M284 432L333 500L619 510L686 428" fill="none" stroke="#8470ee" stroke-width="2" stroke-linecap="round" stroke-linejoin="round"/><path d="M290 273q0 12 12 12q-12 0-12 12q0-12-12-12q12 0 12-12Z" fill="#edfcff" stroke="#438fec" stroke-width="1"/><path d="M370 165q0 12 12 12q-12 0-12 12q0-12-12-12q12 0 12-12Z" fill="#edfcff" stroke="#438fec" stroke-width="1"/><path d="M575 181q0 12 12 12q-12 0-12 12q0-12-12-12q12 0 12-12Z" fill="#edfcff" stroke="#438fec" stroke-width="1"/><path d="M681 284q0 12 12 12q-12 0-12 12q0-12-12-12q12 0 12-12Z" fill="#edfcff" stroke="#438fec" stroke-width="1"/><path d="M284 420q0 12 12 12q-12 0-12 12q0-12-12-12q12 0 12-12Z" fill="#edfcff" stroke="#438fec" stroke-width="1"/><path d="M333 488q0 12 12 12q-12 0-12 12q0-12-12-12q12 0 12-12Z" fill="#edfcff" stroke="#438fec" stroke-width="1"/><path d="M619 498q0 12 12 12q-12 0-12 12q0-12-12-12q12 0 12-12Z" fill="#edfcff" stroke="#438fec" stroke-width="1"/><path d="M686 416q0 12 12 12q-12 0-12 12q0-12-12-12q12 0 12-12Z" fill="#edfcff" stroke="#438fec" stroke-width="1"/></g><g data-unlocked-at="9"><g class="sy-motion sy-fall"><path d="M232 137L260 185" fill="none" stroke="#8cddff" stroke-width="4" stroke-linecap="round" stroke-linejoin="round"/><path d="M260 173q0 12 12 12q-12 0-12 12q0-12-12-12q12 0 12-12Z" fill="#edfcff" stroke="#438fec" stroke-width="1"/><path d="M652 137L680 185" fill="none" stroke="#8cddff" stroke-width="4" stroke-linecap="round" stroke-linejoin="round"/><path d="M680 173q0 12 12 12q-12 0-12 12q0-12-12-12q12 0 12-12Z" fill="#edfcff" stroke="#438fec" stroke-width="1"/><path d="M232 342L260 390" fill="none" stroke="#8cddff" stroke-width="4" stroke-linecap="round" stroke-linejoin="round"/><path d="M260 378q0 12 12 12q-12 0-12 12q0-12-12-12q12 0 12-12Z" fill="#edfcff" stroke="#438fec" stroke-width="1"/><path d="M652 342L680 390" fill="none" stroke="#8cddff" stroke-width="4" stroke-linecap="round" stroke-linejoin="round"/><path d="M680 378q0 12 12 12q-12 0-12 12q0-12-12-12q12 0 12-12Z" fill="#edfcff" stroke="#438fec" stroke-width="1"/><g transform="translate(480 147)"><path d="M0 -13L7.8 0 0 13 -7.8 0Z" fill="#8cddff" stroke="#438fec" stroke-width="2" stroke-linecap="round" stroke-linejoin="round"/><path d="M0 -13V13" fill="none" stroke="#edfcff" stroke-width="2" stroke-linecap="round" stroke-linejoin="round"/></g><g transform="translate(686.9800715044809 246)"><path d="M0 -13L7.8 0 0 13 -7.8 0Z" fill="#8cddff" stroke="#438fec" stroke-width="2" stroke-linecap="round" stroke-linejoin="round"/><path d="M0 -13V13" fill="none" stroke="#edfcff" stroke-width="2" stroke-linecap="round" stroke-linejoin="round"/></g><g transform="translate(686.9800715044809 444)"><path d="M0 -13L7.8 0 0 13 -7.8 0Z" fill="#8cddff" stroke="#438fec" stroke-width="2" stroke-linecap="round" stroke-linejoin="round"/><path d="M0 -13V13" fill="none" stroke="#edfcff" stroke-width="2" stroke-linecap="round" stroke-linejoin="round"/></g><g transform="translate(480 543)"><path d="M0 -13L7.8 0 0 13 -7.8 0Z" fill="#8cddff" stroke="#438fec" stroke-width="2" stroke-linecap="round" stroke-linejoin="round"/><path d="M0 -13V13" fill="none" stroke="#edfcff" stroke-width="2" stroke-linecap="round" stroke-linejoin="round"/></g><g transform="translate(273.0199284955192 444.00000000000006)"><path d="M0 -13L7.8 0 0 13 -7.8 0Z" fill="#8cddff" stroke="#438fec" stroke-width="2" stroke-linecap="round" stroke-linejoin="round"/><path d="M0 -13V13" fill="none" stroke="#edfcff" stroke-width="2" stroke-linecap="round" stroke-linejoin="round"/></g><g transform="translate(273.01992849551914 245.99999999999997)"><path d="M0 -13L7.8 0 0 13 -7.8 0Z" fill="#8cddff" stroke="#438fec" stroke-width="2" stroke-linecap="round" stroke-linejoin="round"/><path d="M0 -13V13" fill="none" stroke="#edfcff" stroke-width="2" stroke-linecap="round" stroke-linejoin="round"/></g></g></g><g data-unlocked-at="10"><g class="sy-motion sy-float"><path d="M265 538C155 358 236 197 344 144C227 278 306 383 265 538Z" fill="url(#sy-curtain)" stroke="#438fec" stroke-width="2" stroke-linecap="round" stroke-linejoin="round"/><path d="M695 538C805 358 724 197 616 144C733 278 654 383 695 538Z" fill="url(#sy-curtain)" stroke="#8470ee" stroke-width="2" stroke-linecap="round" stroke-linejoin="round"/></g></g><g data-unlocked-at="11"><g class="sy-motion sy-turn"><g transform="translate(480 110) rotate(0)"><path d="M0 -21L10 0 0 21 -10 0Z" fill="#87c8ff55" stroke="#8470ee" stroke-width="2" stroke-linecap="round" stroke-linejoin="round"/></g><g transform="translate(597.5 141.4840301106569) rotate(30)"><path d="M0 -21L10 0 0 21 -10 0Z" fill="#87c8ff55" stroke="#8470ee" stroke-width="2" stroke-linecap="round" stroke-linejoin="round"/></g><g transform="translate(683.5159698893431 227.5) rotate(60)"><path d="M0 -21L10 0 0 21 -10 0Z" fill="#87c8ff55" stroke="#8470ee" stroke-width="2" stroke-linecap="round" stroke-linejoin="round"/></g><g transform="translate(715 345) rotate(90)"><path d="M0 -21L10 0 0 21 -10 0Z" fill="#87c8ff55" stroke="#8470ee" stroke-width="2" stroke-linecap="round" stroke-linejoin="round"/></g><g transform="translate(683.5159698893431 462.49999999999994) rotate(120)"><path d="M0 -21L10 0 0 21 -10 0Z" fill="#87c8ff55" stroke="#8470ee" stroke-width="2" stroke-linecap="round" stroke-linejoin="round"/></g><g transform="translate(597.5 548.5159698893431) rotate(150)"><path d="M0 -21L10 0 0 21 -10 0Z" fill="#87c8ff55" stroke="#8470ee" stroke-width="2" stroke-linecap="round" stroke-linejoin="round"/></g><g transform="translate(480 580) rotate(180)"><path d="M0 -21L10 0 0 21 -10 0Z" fill="#87c8ff55" stroke="#8470ee" stroke-width="2" stroke-linecap="round" stroke-linejoin="round"/></g><g transform="translate(362.50000000000006 548.5159698893431) rotate(210)"><path d="M0 -21L10 0 0 21 -10 0Z" fill="#87c8ff55" stroke="#8470ee" stroke-width="2" stroke-linecap="round" stroke-linejoin="round"/></g><g transform="translate(276.48403011065693 462.5000000000001) rotate(240)"><path d="M0 -21L10 0 0 21 -10 0Z" fill="#87c8ff55" stroke="#8470ee" stroke-width="2" stroke-linecap="round" stroke-linejoin="round"/></g><g transform="translate(245 345.00000000000006) rotate(270)"><path d="M0 -21L10 0 0 21 -10 0Z" fill="#87c8ff55" stroke="#8470ee" stroke-width="2" stroke-linecap="round" stroke-linejoin="round"/></g><g transform="translate(276.48403011065693 227.49999999999997) rotate(300)"><path d="M0 -21L10 0 0 21 -10 0Z" fill="#87c8ff55" stroke="#8470ee" stroke-width="2" stroke-linecap="round" stroke-linejoin="round"/></g><g transform="translate(362.4999999999999 141.48403011065696) rotate(330)"><path d="M0 -21L10 0 0 21 -10 0Z" fill="#87c8ff55" stroke="#8470ee" stroke-width="2" stroke-linecap="round" stroke-linejoin="round"/></g></g><ellipse cx="480" cy="573" rx="239" ry="57" fill="none" stroke="#8470ee" stroke-width="3"/></g></svg>