<svg xmlns="http://www.w3.org/2000/svg" viewBox="0 0 960 680" aria-hidden="true"><g class="yt-pulse"><ellipse cx="480" cy="353" rx="220" ry="84" fill="none" stroke="#55cbc4" stroke-width="3" transform="rotate(-32 480 353)"/><ellipse cx="480" cy="353" rx="220" ry="84" fill="none" stroke="#9983eb" stroke-width="3" transform="rotate(32 480 353)"/><ellipse cx="480" cy="353" rx="220" ry="108" fill="none" stroke="#6298eb" stroke-width="3" transform="rotate(0 480 353)"/><path d="M700 357l2.6999999999999997 6.3 6.3 2.6999999999999997-6.3 2.6999999999999997-2.6999999999999997 6.3-2.6999999999999997-6.3-6.3-2.6999999999999997 6.3-2.6999999999999997Z" fill="#55cbc4"/><path d="M649 437l1.5 3.5 3.5 1.5-3.5 1.5-1.5 3.5-1.5-3.5-3.5-1.5 3.5-1.5Z" fill="#9983eb"/><path d="M518 473l2.6999999999999997 6.3 6.3 2.6999999999999997-6.3 2.6999999999999997-2.6999999999999997 6.3-2.6999999999999997-6.3-6.3-2.6999999999999997 6.3-2.6999999999999997Z" fill="#55cbc4"/><path d="M370 463l1.5 3.5 3.5 1.5-3.5 1.5-1.5 3.5-1.5-3.5-3.5-1.5 3.5-1.5Z" fill="#9983eb"/><path d="M273 397l2.6999999999999997 6.3 6.3 2.6999999999999997-6.3 2.6999999999999997-2.6999999999999997 6.3-2.6999999999999997-6.3-6.3-2.6999999999999997 6.3-2.6999999999999997Z" fill="#55cbc4"/><path d="M273 321l1.5 3.5 3.5 1.5-3.5 1.5-1.5 3.5-1.5-3.5-3.5-1.5 3.5-1.5Z" fill="#9983eb"/><path d="M370 255l2.6999999999999997 6.3 6.3 2.6999999999999997-6.3 2.6999999999999997-2.6999999999999997 6.3-2.6999999999999997-6.3-6.3-2.6999999999999997 6.3-2.6999999999999997Z" fill="#55cbc4"/><path d="M518 245l1.5 3.5 3.5 1.5-3.5 1.5-1.5 3.5-1.5-3.5-3.5-1.5 3.5-1.5Z" fill="#9983eb"/><path d="M649 281l2.6999999999999997 6.3 6.3 2.6999999999999997-6.3 2.6999999999999997-2.6999999999999997 6.3-2.6999999999999997-6.3-6.3-2.6999999999999997 6.3-2.6999999999999997Z" fill="#55cbc4"/></g></svg>